<?xml version="1.0" encoding="UTF-8"?>
<svg id="Layer_2" data-name="Layer 2" xmlns="http://www.w3.org/2000/svg" viewBox="0 0 277.48 272.6">
  <defs>
    <style>
      .cls-1 {
        fill: #fbb03b;
      }
    </style>
  </defs>
  <g id="Layer_1-2" data-name="Layer 1">
    <g>
      <g>
        <path d="m269.71,62.74L212.92,7.32c-5.53-5.39-13.18-8.02-20.86-7.16l-48.33,5.43c-12.18,1.37-21.71,11.13-22.78,23.34l-4.24,48.45c-.67,7.69,2.14,15.28,7.67,20.68l56.79,55.42c5.53,5.39,13.18,8.02,20.86,7.16l48.33-5.43c12.18-1.37,21.71-11.13,22.78-23.34l4.24-48.45c.67-7.69-2.14-15.28-7.67-20.68Z"/>
        <path class="cls-1" d="m217.95,82.7l-1.01,11.58c-.26,2.97-2.57,5.34-5.53,5.67l-11.55,1.3c-1.86.21-3.72-.43-5.07-1.74l-13.62-13.29c-1.34-1.31-2.03-3.15-1.86-5.02l1.01-11.58c.26-2.97,2.57-5.34,5.53-5.67l11.55-1.3c1.86-.21,3.72.43,5.07,1.74l13.62,13.29c1.34,1.31,2.03,3.15,1.86,5.02Z"/>
      </g>
      <g>
        <path d="m8.08,225.48c-1.24,1.24-2.32,2.57-3.28,3.96h77.39l25.35-25.35H29.46s-21.39,21.39-21.39,21.39Z"/>
        <polygon points="161.41 149.79 122.59 110.96 83.77 149.79 161.41 149.79"/>
        <path d="m.06,243.19c-.5,7.65,2.17,15.47,8.02,21.32h0c10.78,10.78,28.26,10.78,39.04,0l21.32-21.32H.06Z"/>
        <polygon points="121.29 190.34 148.09 163.54 70.01 163.54 43.22 190.34 121.29 190.34"/>
      </g>
    </g>
  </g>
</svg>