<?xml version="1.0" encoding="UTF-8"?>
<svg id="Layer_2" data-name="Layer 2" xmlns="http://www.w3.org/2000/svg" viewBox="0 0 402.97 396.43">
  <defs>
    <style>
      .cls-1 {
        fill: none;
        stroke-width: 15px;
      }

      .cls-1, .cls-2, .cls-3 {
        stroke: #000;
      }

      .cls-1, .cls-2, .cls-3, .cls-4 {
        stroke-miterlimit: 10;
      }

      .cls-2 {
        fill: #fff;
        stroke-width: 20px;
      }

      .cls-3, .cls-4 {
        stroke-width: 16px;
      }

      .cls-4 {
        stroke: #fbb03b;
      }
    </style>
  </defs>
  <g id="Layer_1-2" data-name="Layer 1">
    <g>
      <path class="cls-1" d="m4.78,292.1s202.35,167.5,393.24,0"/>
      <path class="cls-1" d="m148.77,179.85s54.17,44.84,105.27,0"/>
      <circle class="cls-3" cx="201.9" cy="101.95" r="52"/>
      <circle class="cls-4" cx="201.9" cy="101.36" r="35.45"/>
      <path class="cls-2" d="m301.2,126.01h5.78c.11,0,.2.09.2.2v271.08c0,1.71-1.39,3.09-3.09,3.09h0c-1.71,0-3.09-1.39-3.09-3.09V126.21c0-.11.09-.2.2-.2Z" transform="translate(-90.86 187.31) rotate(-30)"/>
      <path class="cls-2" d="m100.75,130.02h0c1.71,0,3.09,1.39,3.09,3.09v271.28h-6.18V133.11c0-1.71,1.39-3.09,3.09-3.09Z" transform="translate(54.4 548.99) rotate(-150)"/>
      <rect class="cls-1" x="201.9" y="347.76" width="5.28" height="37.56" rx="2.64" ry="2.64"/>
      <rect class="cls-1" x="199.26" y="7.5" width="5.28" height="37.56" rx="2.64" ry="2.64"/>
    </g>
  </g>
</svg>