<?xml version="1.0" encoding="UTF-8"?>
<svg id="Layer_2" data-name="Layer 2" xmlns="http://www.w3.org/2000/svg" viewBox="0 0 420.68 296.18">
  <defs>
    <style>
      .cls-1 {
        fill: #fbb03b;
      }

      .cls-2 {
        stroke: #000;
        stroke-miterlimit: 10;
        stroke-width: 10px;
      }
    </style>
  </defs>
  <g id="Layer_1-2" data-name="Layer 1">
    <g>
      <g>
        <path class="cls-2" d="m196.15,39.27L65.27,106.01c-16.29,8.31-23.1,28.01-15.42,44.61l44.15,95.37c5.57,12.03,17.62,19.73,30.88,19.73h173.45c13.26,0,25.31-7.7,30.88-19.73l44.15-95.37c7.68-16.6.87-36.3-15.42-44.61L227.06,39.27c-9.71-4.95-21.21-4.95-30.92,0Z"/>
        <rect x="59.93" y="265.72" width="303.36" height="30.46" rx="8.65" ry="8.65"/>
        <g>
          <path d="m225.27,62.05l-39.98-45.42c-2.5-2.84-2.5-7.45,0-10.29l3.71-4.21c2.5-2.84,6.56-2.84,9.06,0l39.98,45.42c2.5,2.84,2.5,7.45,0,10.29l-3.71,4.21c-2.5,2.84-6.56,2.84-9.06,0Z"/>
          <path d="m184.75,48.17L224.73,2.75c2.5-2.84,6.56-2.84,9.06,0l3.71,4.21c2.5,2.84,2.5,7.45,0,10.29l-39.98,45.42c-2.5,2.84-6.56,2.84-9.06,0l-3.71-4.21c-2.5-2.84-2.5-7.45,0-10.29Z"/>
        </g>
        <path class="cls-1" d="m201.92,122.64l-32.71,27.79c-1.92,2.28-2.69,5.15-2.14,7.93l14.76,74.38c.99,5,5.99,8.66,11.83,8.66h35.9c5.84,0,10.83-3.66,11.83-8.66l14.76-74.38c.55-2.79-.22-5.65-2.14-7.93l-32.71-27.79c-4.79-5.7-14.58-5.7-19.38,0Z"/>
      </g>
      <path d="m3.7,270.1h0c3.15,1.61,6.86,0,8.28-3.57l45.39-125.02c1.42-3.58,0-7.79-3.15-9.4h0c-3.15-1.61-6.86,0-8.28,3.57L.55,260.7c-1.42,3.58,0,7.79,3.15,9.4Z"/>
      <path d="m416.98,265.09h0c-3.15,1.61-6.86,0-8.28-3.57l-44.87-120.99c-1.42-3.58,0-7.79,3.15-9.4h0c3.15-1.61,6.86,0,8.28,3.57l44.87,120.99c1.42,3.58,0,7.79-3.15,9.4Z"/>
      <path d="m47.61,261.23h0c3.42.57,6.6-2.13,7.1-6.01l17.64-137.75c.5-3.89-1.87-7.5-5.29-8.06h0c-3.42-.57-6.6,2.13-7.1,6.01l-17.64,137.75c-.5,3.89,1.87,7.5,5.29,8.06Z"/>
      <path d="m373,261.23h0c-3.42.57-6.6-2.13-7.1-6.01l-17.64-137.75c-.5-3.89,1.87-7.5,5.29-8.06h0c3.42-.57,6.6,2.13,7.1,6.01l17.64,137.75c.5,3.89-1.87,7.5-5.29,8.06Z"/>
    </g>
  </g>
</svg>