<?xml version="1.0" encoding="UTF-8"?>
<svg id="Layer_2" data-name="Layer 2" xmlns="http://www.w3.org/2000/svg" viewBox="0 0 420.68 296.18">
  <defs>
    <style>
      .cls-1, .cls-2 {
        fill: #fbb03b;
      }

      .cls-1, .cls-3, .cls-4, .cls-5 {
        stroke: #000;
        stroke-miterlimit: 10;
      }

      .cls-1, .cls-4 {
        stroke-width: 5px;
      }

      .cls-3 {
        stroke-width: 2.5px;
      }

      .cls-3, .cls-4 {
        fill: none;
      }

      .cls-5 {
        stroke-width: 10px;
      }
    </style>
  </defs>
  <g id="Layer_1-2" data-name="Layer 1">
    <g>
      <g>
        <path class="cls-5" d="m196.15,39.27L65.27,106.01c-16.29,8.31-23.1,28.01-15.42,44.61l44.15,95.37c5.57,12.03,17.62,19.73,30.88,19.73h173.45c13.26,0,25.31-7.7,30.88-19.73l44.15-95.37c7.68-16.6.87-36.3-15.42-44.61L227.06,39.27c-9.71-4.95-21.21-4.95-30.92,0Z"/>
        <rect x="59.93" y="265.72" width="303.36" height="30.46" rx="8.65" ry="8.65"/>
        <g>
          <path d="m225.27,62.05l-39.98-45.42c-2.5-2.84-2.5-7.45,0-10.29l3.71-4.21c2.5-2.84,6.56-2.84,9.06,0l39.98,45.42c2.5,2.84,2.5,7.45,0,10.29l-3.71,4.21c-2.5,2.84-6.56,2.84-9.06,0Z"/>
          <path d="m184.75,48.17L224.73,2.75c2.5-2.84,6.56-2.84,9.06,0l3.71,4.21c2.5,2.84,2.5,7.45,0,10.29l-39.98,45.42c-2.5,2.84-6.56,2.84-9.06,0l-3.71-4.21c-2.5-2.84-2.5-7.45,0-10.29Z"/>
        </g>
      </g>
      <path d="m3.7,270.1h0c3.15,1.61,6.86,0,8.28-3.57l45.39-125.02c1.42-3.58,0-7.79-3.15-9.4h0c-3.15-1.61-6.86,0-8.28,3.57L.55,260.7c-1.42,3.58,0,7.79,3.15,9.4Z"/>
      <path d="m416.98,265.09h0c-3.15,1.61-6.86,0-8.28-3.57l-44.87-120.99c-1.42-3.58,0-7.79,3.15-9.4h0c3.15-1.61,6.86,0,8.28,3.57l44.87,120.99c1.42,3.58,0,7.79-3.15,9.4Z"/>
      <path d="m47.61,261.23h0c3.42.57,6.6-2.13,7.1-6.01l17.64-137.75c.5-3.89-1.87-7.5-5.29-8.06h0c-3.42-.57-6.6,2.13-7.1,6.01l-17.64,137.75c-.5,3.89,1.87,7.5,5.29,8.06Z"/>
      <path d="m373,261.23h0c-3.42.57-6.6-2.13-7.1-6.01l-17.64-137.75c-.5-3.89,1.87-7.5,5.29-8.06h0c3.42-.57,6.6,2.13,7.1,6.01l17.64,137.75c.5,3.89-1.87,7.5-5.29,8.06Z"/>
    </g>
    <path class="cls-2" d="m197.13,58.99l-109.82,57.64c-14.1,7.4-20,24.49-13.47,39.01l37.27,82.85c4.86,10.81,15.61,17.76,27.46,17.76h145.12c11.85,0,22.6-6.95,27.46-17.76l37.27-82.85c6.53-14.52.63-31.61-13.47-39.01l-109.82-57.64c-8.76-4.6-19.22-4.6-27.98,0Z"/>
    <circle class="cls-4" cx="211.12" cy="109.33" r="12.1"/>
    <line class="cls-4" x1="348.27" y1="117.47" x2="223.22" y2="109.33"/>
    <line class="cls-4" x1="72.34" y1="117.47" x2="199.03" y2="109.33"/>
    <path class="cls-1" d="m206.25,147.03l-13.42,12.62c-1.88,1.77-2.65,4.41-2.03,6.91l5.78,23.03c.79,3.16,3.64,5.38,6.9,5.38h15.27c3.26,0,6.1-2.22,6.9-5.38l5.78-23.03c.63-2.5-.15-5.15-2.03-6.91l-13.42-12.62c-2.74-2.57-7.01-2.57-9.74,0Z"/>
    <line class="cls-3" x1="211.12" y1="121.43" x2="211.12" y2="145.09"/>
    <line class="cls-3" x1="211.18" y1="145.09" x2="211.18" y2="164.85"/>
    <line class="cls-3" x1="230.44" y1="159.36" x2="211.18" y2="164.85"/>
    <line class="cls-3" x1="192.83" y1="159.64" x2="211.18" y2="164.85"/>
    <line class="cls-3" x1="196.59" y1="189.58" x2="211.18" y2="185.01"/>
    <line class="cls-3" x1="225.66" y1="189.58" x2="211.18" y2="185.01"/>
    <line class="cls-3" x1="211.18" y1="164.85" x2="211.18" y2="185.01"/>
    <line class="cls-3" x1="229.41" y1="159.64" x2="211.18" y2="154.97"/>
    <line class="cls-3" x1="192.83" y1="159.64" x2="211.18" y2="154.97"/>
    <line class="cls-4" x1="211.12" y1="32.71" x2="211.12" y2="97.24"/>
  </g>
</svg>