<?xml version="1.0" encoding="UTF-8"?>
<svg id="Layer_2" data-name="Layer 2" xmlns="http://www.w3.org/2000/svg" viewBox="0 0 192.45 344.11">
  <defs>
    <style>
      .cls-1, .cls-2 {
        fill: #fbb03b;
      }

      .cls-2 {
        stroke: #000;
        stroke-miterlimit: 10;
        stroke-width: 10px;
      }
    </style>
  </defs>
  <g id="Layer_1-2" data-name="Layer 1">
    <g>
      <rect class="cls-2" x="54.08" y="116.25" width="77.69" height="222.86" rx="9.36" ry="9.36"/>
      <g>
        <g>
          <path d="m186.42,46.46l-31.26-37.26C150.2,3.28,142.84-.09,135.12,0L55.78.97c-7.72.09-14.99,3.65-19.81,9.68L5.62,48.67c-7.65,9.58-7.48,23.22.4,32.61l31.26,37.26c4.96,5.92,12.32,9.29,20.04,9.2l79.34-.97c7.72-.09,14.99-3.65,19.81-9.68l30.34-38.01c7.65-9.58,7.48-23.22-.4-32.61Z"/>
          <path class="cls-1" d="m112.63,50.72l7.47,8.9c1.91,2.28,1.95,5.59.1,7.92l-7.25,9.08c-1.17,1.47-2.94,2.33-4.81,2.35l-19.03.23c-1.88.02-3.66-.8-4.87-2.23l-7.47-8.9c-1.91-2.28-1.95-5.59-.1-7.92l7.25-9.08c1.17-1.47,2.94-2.33,4.81-2.35l19.03-.23c1.88-.02,3.66.8,4.87,2.23Z"/>
        </g>
        <g>
          <path d="m65.19,300.08c0,1.75.17,3.46.48,5.12l54.73-54.73v-35.84s-55.21,55.21-55.21,55.21v30.25Z"/>
          <polygon points="120.1 138.13 65.19 138.13 65.19 193.03 120.1 138.13"/>
          <path d="m72.05,318.27c5.06,5.76,12.48,9.41,20.75,9.41h0c15.24,0,27.6-12.36,27.6-27.6v-30.15s-48.35,48.35-48.35,48.35Z"/>
          <polygon points="120.4 195.17 120.4 157.28 65.19 212.49 65.19 250.38 120.4 195.17"/>
        </g>
      </g>
    </g>
  </g>
</svg>