<?xml version="1.0" encoding="UTF-8"?>
<svg id="Layer_2" data-name="Layer 2" xmlns="http://www.w3.org/2000/svg" viewBox="0 0 454.91 398.86">
  <defs>
    <style>
      .cls-1 {
        stroke-width: 14px;
      }

      .cls-1, .cls-2, .cls-3, .cls-4, .cls-5, .cls-6 {
        stroke: #000;
        stroke-miterlimit: 10;
      }

      .cls-1, .cls-3 {
        fill: none;
      }

      .cls-2 {
        fill: #fbb03b;
      }

      .cls-2, .cls-5 {
        stroke-width: 10px;
      }

      .cls-3 {
        stroke-width: 20px;
      }

      .cls-4 {
        stroke-width: 9px;
      }

      .cls-6 {
        stroke-width: 8px;
      }
    </style>
  </defs>
  <g id="Layer_1-2" data-name="Layer 1">
    <g>
      <g>
        <path class="cls-6" d="m253.64,196.03l-75.21,183.83c-2.61,6.38,2.08,13.37,8.97,13.37h150.43c6.89,0,11.58-6.99,8.97-13.37l-75.21-183.83c-3.29-8.03-14.66-8.03-17.95,0Z"/>
        <path class="cls-4" d="m354.82,128.58c-2.91-7.81-15.7-7.81-18.61,0l-95.12,255.63c-2.03,5.45,2.68,11.02,9.5,10.03h190.24c6.43.99,11.14-4.58,9.11-10.03l-95.12-255.63Z"/>
        <path class="cls-5" d="m143.91,47.73L18.66,384.35c-1.69,4.55,1.67,9.4,6.53,9.4h250.51c4.86,0,8.22-4.84,6.53-9.4L156.97,47.73c-2.25-6.05-10.81-6.05-13.06,0Z"/>
      </g>
      <path class="cls-2" d="m143.8,48.6l-23.97,75.83c-1.42,4.49,1.93,9.07,6.64,9.07h47.93c4.71,0,8.06-4.58,6.64-9.07l-23.97-75.83c-2.05-6.49-11.23-6.49-13.29,0Z"/>
    </g>
    <g>
      <ellipse class="cls-3" cx="150.97" cy="95.56" rx="83.11" ry="85.55"/>
      <path class="cls-1" d="m9.56,224.51l-1.22-1.37c-1.9-2.14-1.76-5.45.31-7.4l69.79-65.76c2.07-1.95,5.29-1.8,7.19.34l1.22,1.37c1.9,2.14,1.76,5.45-.31,7.4L16.75,224.85c-2.07,1.95-5.29,1.8-7.19-.34Z"/>
    </g>
  </g>
</svg>