<?xml version="1.0" encoding="UTF-8"?>
<svg id="Layer_2" data-name="Layer 2" xmlns="http://www.w3.org/2000/svg" viewBox="0 0 242.08 231.22">
  <defs>
    <style>
      .cls-1 {
        fill: none;
      }

      .cls-1, .cls-2, .cls-3, .cls-4 {
        stroke-miterlimit: 10;
      }

      .cls-1, .cls-3, .cls-4 {
        stroke: #000;
        stroke-width: 15px;
      }

      .cls-2 {
        stroke: #fbb03b;
        stroke-width: .25px;
      }

      .cls-2, .cls-3 {
        fill: #fbb03b;
      }
    </style>
  </defs>
  <g id="Layer_1-2" data-name="Layer 1">
    <g>
      <circle class="cls-2" cx="150.1" cy="92.82" r="81.74"/>
      <path class="cls-1" d="m10.06,222.01l-1.22-1.37c-1.9-2.14-1.76-5.45.31-7.4l69.79-65.76c2.07-1.95,5.29-1.8,7.19.34l1.22,1.37c1.9,2.14,1.76,5.45-.31,7.4L17.25,222.35c-2.07,1.95-5.29,1.8-7.19-.34Z"/>
      <path class="cls-1" d="m164.36,10.42c40.73,6.58,69.86,42.58,70.21,83.67.54-41.86-28.86-78.85-70.21-85.54-45.35-7.33-87.88,24.57-95,71.24-.74,4.86-1.06,9.68-1,14.44.04-4.15.36-8.35,1-12.57C76.48,34.99,119.02,3.09,164.36,10.42Z"/>
      <path class="cls-1" d="m234.57,94.08c-.05,4.05-.37,8.13-1,12.25-3.53,23.13-15.76,42.63-32.71,55.53l-43.39-116.62c-2.25-6.05-10.81-6.05-13.06,0l-43.16,116c-20.01-15.65-32.56-40.23-32.89-67.01-.38,41.73,28.97,78.55,70.22,85.22,45.35,7.33,87.88-24.57,95-71.24.72-4.75,1.03-9.46.99-14.12Zm-45.5,56.97c0,11.08-8.98,20.06-20.06,20.06h-40.61c-11.08,0-20.06-8.98-20.06-20.06h0c0-11.08,8.98-20.07,20.06-20.07h40.61c11.08,0,20.06,8.98,20.06,20.06h0Z"/>
      <rect class="cls-4" x="108.33" y="130.99" width="80.74" height="40.13" rx="20.06" ry="20.06"/>
      <path class="cls-3" d="m144.82,46.1l-28.21,89.25c-1.42,4.49,1.93,9.07,6.64,9.07h56.42c4.71,0,8.06-4.58,6.64-9.07l-28.21-89.25c-2.05-6.49-11.23-6.49-13.29,0Z"/>
      <path d="m163.34,128.89c1.26-2.02,2.57-4,3.86-6,6.96,1.3,14.27,1.42,20.61,4.94,0,0-.05.24-.05.24-7.08.58-13.66-2.24-20.39-3.91,0,0,.62-.23.62-.23-1.48,1.7-2.94,3.43-4.45,5.11,0,0-.2-.15-.2-.15h0Z"/>
      <g>
        <path d="m136.68,134.96c-1.76-.57-2.6-1.35-3.47-2.91,0,0-2.43-3.61-2.43-3.61l2.07-1.4c.81,1.2,2.87,4.25,3.65,5.41.09.81.19,1.62.18,2.5h0Zm0,0c-.82-.32-1.53-.71-2.25-1.1-.77-1.14-2.85-4.22-3.65-5.41,0,0,2.07-1.4,2.07-1.4l2.43,3.61c1.12,1.38,1.53,2.47,1.4,4.3h0Z"/>
        <path d="m131,120.72c.7.06,3.37.29,4.02.34,0,0-.39,1.35-.39,1.35-.11.39-1.75,6.12-1.81,6.33,0,0-.65.2-.65.2l-6.62,2.03-3.31,1.01c-.51.32-1.17.11-1.78.09-.62-.07-1.25-.15-1.89-.27.46-.45.94-.88,1.42-1.28.49-.36.93-.91,1.53-.93l3.31-1.01,6.62-2.03-.84.85,1.62-5.68.59,1.44-1.83-2.44h0Z"/>
      </g>
      <path d="m159.41,100.32c.9.5,1.83.96,2.55,1.62.13.36.67,1.06.85,1.4,0,0-2.19.14-2.19.14l3.06-6.49c.1-.23.1-.24.3-.4.89-.82,3.75-3.3,4.57-4.11.85-.48,1.93-.64,2.93-.91-.38.97-.66,2.02-1.24,2.81-.88.71-3.7,3.29-4.6,4.07,0,0,.3-.4.3-.4l-3.06,6.49-.97,2.05c-.56-.87-1.52-2.47-2.12-3.29-.29-.93-.31-1.96-.38-3h0Z"/>
      <path d="m143.62,104.02c.01.87-.05,1.8-.14,2.66-.05.28,0,.6-.15.84-.47.82-1.03,2.06-1.47,2.92,0,0-.64,1.31-.64,1.31l-1.19-.83-5.05-3.51,1.17.14-5.42,2.12c-1.92.94-3.73,1.23-5.88.95,1.39-1.66,2.92-2.67,4.97-3.28.37-.15,5.84-2.28,6.04-2.36.07.06,5.34,3.71,5.59,3.9,0,0-1.84.47-1.84.47.4-.87,1.06-2.06,1.41-2.94.1-.26.38-.42.57-.63.62-.6,1.32-1.21,2.02-1.74h0Z"/>
      <path d="m148.71,85.61c.7-.55,1.4-1.01,2.13-1.44.4-.25.91-.11,1.36-.23,0,0,3.64-.43,3.64-.43l-.82.44c1.31-1.58,4.68-5.64,5.95-7.17.2-.17.24-.47.55-.56.76-.37,1.58-.75,2.4-1.03-.13.85-.35,1.73-.58,2.55-.02.32-.31.41-.45.64-1.25,1.51-4.65,5.6-5.95,7.17,0,0-.32.38-.32.38l-.5.06-3.64.43c-.47,0-.92.25-1.37.09-.81-.26-1.6-.53-2.41-.91h0Z"/>
      <path d="m148.56,76.53c-.53-.41-1.54-1.21-1.8-1.64-.03-.35-.17-.67-.25-1.01l-.28-1,.57.74c-1.63-.95-5.82-3.39-7.4-4.31-.33-.24-.77-.31-.88-.62-.35-.61-.67-1.22-.96-1.9.73-.09,1.42-.11,2.12-.1.31-.06.6.28.97.46,1.56.91,5.79,3.37,7.4,4.31,0,0,.44.25.44.25.1.31.32,1.16.42,1.48.11.33.16.67.31.99.05.16-.07.38-.1.57-.15.59-.33,1.2-.57,1.78h0Z"/>
    </g>
  </g>
</svg>