<?xml version="1.0" encoding="UTF-8"?>
<svg id="Layer_2" data-name="Layer 2" xmlns="http://www.w3.org/2000/svg" viewBox="0 0 317.65 375.56">
  <defs>
    <style>
      .cls-1 {
        fill: #fbb03b;
      }

      .cls-2, .cls-3, .cls-4 {
        fill: #231f20;
      }

      .cls-2, .cls-3, .cls-4, .cls-5 {
        stroke-miterlimit: 10;
      }

      .cls-2, .cls-4 {
        stroke: #fbb03b;
      }

      .cls-2, .cls-5 {
        stroke-width: 10px;
      }

      .cls-3 {
        stroke-width: 20px;
      }

      .cls-3, .cls-5 {
        stroke: #000;
      }

      .cls-4 {
        stroke-width: 7px;
      }
    </style>
  </defs>
  <g id="Layer_1-2" data-name="Layer 1">
    <g>
      <g>
        <path d="m288.81,230.62l-13.12-211.07c-.99-15.99-18.92-24.91-32.27-16.05L67.17,120.4c-8.27,5.48-10.93,15.23-8.36,23.55l21.64-4.6-8.97,18.04,187.3,93.15c14.34,7.13,31.03-3.94,30.04-19.92Z"/>
        <rect class="cls-3" x="99.18" y="269.77" width="19.79" height="96.99" rx="1.55" ry="1.55" transform="translate(65.01 651.79) rotate(-153.56)"/>
        <path d="m193.95,109.65L7.77,233.15c-11.14,7.39-10.1,24.07,1.87,30.02l200.05,99.49c11.97,5.95,25.89-3.28,25.06-16.63l-13.86-222.99c-.83-13.34-15.79-20.78-26.93-13.39Z"/>
        <rect class="cls-2" x="195.54" y="22.62" width="3.71" height="89.59" rx="1.55" ry="1.55" transform="translate(144.46 -134.35) rotate(56.44)"/>
        <rect class="cls-2" x="85.37" y="175.05" width="3.71" height="89.59" rx="1.55" ry="1.55" transform="translate(222.22 25.63) rotate(56.44)"/>
        <rect class="cls-2" x="258.63" y="117.95" width="3.71" height="96.89" rx="1.55" ry="1.55" transform="translate(-9.82 16.49) rotate(-3.56)"/>
      </g>
      <g>
        <path class="cls-1" d="m299.43,266.18l12.85,5.44c1.13-5.77-.42-12.08-5.21-16.79l-84.59-83.18c-10.19-10.02-27.41-5.25-30.99,8.58l-29.74,114.85c-3.58,13.83,9.15,26.36,22.93,22.54l114.33-31.67c1.94-.54,3.69-1.35,5.24-2.36l-4.83-17.42Z"/>
        <path class="cls-1" d="m172.48,110.55l-30.03,115.96c-3.12,12.03,7.96,22.93,19.94,19.61l115.44-31.97c11.98-3.32,15.87-18.36,7.01-27.08l-85.41-83.99c-8.86-8.72-23.84-4.57-26.95,7.47Z"/>
        <path d="m180.76,99.65l-30.39,117.34c-3.12,12.03,7.96,22.93,19.94,19.61l116.82-32.36c11.98-3.32,15.87-18.36,7.01-27.08l-86.43-84.99c-8.86-8.72-23.84-4.57-26.95,7.47Z"/>
        <path class="cls-5" d="m246.43,269.64h11.55c.72,0,1.31.59,1.31,1.31v52.59c0,1.09-.88,1.97-1.97,1.97h-10.21c-1.09,0-1.97-.88-1.97-1.97v-52.59c0-.72.59-1.31,1.31-1.31Z" transform="translate(-70.28 78.12) rotate(-15.48)"/>
        <rect class="cls-4" x="188.49" y="121.91" width="2.06" height="49.66" rx=".86" ry=".86" transform="translate(42.84 -42.82) rotate(14.52)"/>
        <rect class="cls-4" x="251.23" y="141.17" width="2.06" height="53.71" rx=".86" ry=".86" transform="translate(-44.41 230.09) rotate(-45.48)"/>
        <path d="m304.86,259.53l12.44,5.27c1.09-5.58-.41-11.7-5.04-16.25l-81.91-80.55c-9.87-9.7-26.54-5.09-30.01,8.31l-28.8,111.21c-3.47,13.4,8.86,25.52,22.2,21.83l110.71-30.66c1.88-.52,3.57-1.31,5.08-2.29l-4.67-16.87Z"/>
      </g>
    </g>
  </g>
</svg>