<?xml version="1.0" encoding="UTF-8"?>
<svg id="Layer_2" data-name="Layer 2" xmlns="http://www.w3.org/2000/svg" viewBox="0 0 383.97 410.55">
  <defs>
    <style>
      .cls-1, .cls-2, .cls-3 {
        fill: #231f20;
      }

      .cls-1, .cls-2, .cls-3, .cls-4 {
        stroke-miterlimit: 10;
      }

      .cls-1, .cls-3 {
        stroke: #fbb03b;
      }

      .cls-1, .cls-4 {
        stroke-width: 10px;
      }

      .cls-2 {
        stroke-width: 20px;
      }

      .cls-2, .cls-4 {
        stroke: #000;
      }

      .cls-3 {
        stroke-width: 7px;
      }
    </style>
  </defs>
  <g id="Layer_1-2" data-name="Layer 1">
    <g>
      <path d="m252.86,193.55L147.12,10.41c-8.01-13.87-28.04-13.87-36.05,0L5.34,193.55c-4.96,8.59-3.01,18.5,3,24.81l17.32-13.75v20.15h209.18c16.02,0,26.03-17.34,18.02-31.22Z"/>
      <g>
        <rect class="cls-2" x="121.06" y="303.56" width="19.79" height="96.99" rx="1.55" ry="1.55" transform="translate(261.91 704.12) rotate(-180)"/>
        <path d="m114.06,127.48L2.35,320.97c-6.68,11.58,1.67,26.05,15.04,26.05h223.42c13.37,0,21.72-14.47,15.04-26.05l-111.71-193.49c-6.68-11.58-23.39-11.58-30.08,0Z"/>
        <path d="m293.21,126.39l-60.61,104.97c-6.22,10.77,1.55,24.22,13.98,24.22h121.21c12.43,0,20.2-13.46,13.98-24.22l-60.61-104.97c-6.22-10.77-21.75-10.77-27.97,0Z"/>
        <rect class="cls-1" x="96.49" y="43.33" width="3.71" height="89.59" rx="1.55" ry="1.55" transform="translate(57.24 -37.36) rotate(30)"/>
        <rect class="cls-1" x="65.72" y="228.88" width="3.71" height="89.59" rx="1.55" ry="1.55" transform="translate(145.89 2.88) rotate(30)"/>
        <path class="cls-4" d="m303.45,308.27h11.55c.72,0,1.31.59,1.31,1.31v52.59c0,1.09-.88,1.97-1.97,1.97h-10.21c-1.09,0-1.97-.88-1.97-1.97v-52.59c0-.72.59-1.31,1.31-1.31Z"/>
        <rect class="cls-1" x="197.05" y="100.21" width="3.71" height="96.89" rx="1.55" ry="1.55" transform="translate(-47.68 119.37) rotate(-30)"/>
        <rect class="cls-3" x="288.05" y="149.29" width="2.06" height="49.66" rx=".86" ry=".86" transform="translate(125.79 -121.21) rotate(30)"/>
        <rect class="cls-3" x="342.84" y="184.52" width="2.06" height="53.71" rx=".86" ry=".86" transform="translate(-59.62 200.25) rotate(-30)"/>
      </g>
      <path d="m370.13,313.6l10.58,8.4c2.55-5.09,2.73-11.38-.52-17.01l-57.44-99.49c-6.92-11.98-24.22-11.98-31.14,0l-57.44,99.49c-6.92,11.98,1.73,26.97,15.57,26.97h114.88c1.95,0,3.79-.31,5.5-.85v-17.51Z"/>
    </g>
  </g>
</svg>