<?xml version="1.0" encoding="UTF-8"?>
<svg id="Layer_2" data-name="Layer 2" xmlns="http://www.w3.org/2000/svg" viewBox="0 0 468.8 365.48">
  <defs>
    <style>
      .cls-1 {
        stroke-width: 25px;
      }

      .cls-1, .cls-2 {
        fill: #fbb03b;
      }

      .cls-1, .cls-3, .cls-4 {
        stroke: #000;
        stroke-miterlimit: 10;
      }

      .cls-3 {
        stroke-width: 13px;
      }

      .cls-4 {
        stroke-width: 10px;
      }
    </style>
  </defs>
  <g id="Layer_1-2" data-name="Layer 1">
    <rect class="cls-2" x="0" y="328.09" width="178.48" height="37.18" rx="18.59" ry="18.59"/>
    <g>
      <path class="cls-3" d="m156.4,170.91h0c-.91,4.55,1.72,9.92,5.87,12.01l130.02,65.31c4.15,2.09,8.25.09,9.16-4.46h0c.91-4.55-1.72-9.92-5.87-12.01l-130.02-65.31c-4.15-2.09-8.25-.09-9.16,4.46Z"/>
      <path class="cls-3" d="m142.26,176.45h0c4.54.95,8.45,5.47,8.74,10.1l9.07,144.97c.29,4.63-3.16,7.61-7.7,6.66h0c-4.54-.95-8.45-5.47-8.74-10.1l-9.07-144.97c-.29-4.63,3.16-7.61,7.7-6.66Z"/>
      <path class="cls-3" d="m275.3,106.83h0c-1.02,4.52,1.46,9.96,5.55,12.15l128.1,68.49c4.09,2.19,8.24.29,9.26-4.23h0c1.02-4.52-1.46-9.96-5.55-12.15l-128.1-68.49c-4.09-2.19-8.24-.29-9.26,4.23Z"/>
      <rect class="cls-3" x="288.09" y="227.94" width="18.89" height="50.32" rx="6.68" ry="6.68" transform="translate(394.6 -125.28) rotate(64)"/>
      <rect class="cls-3" x="124.38" y="135.15" width="18.89" height="50.32" rx="6.68" ry="6.68" transform="translate(219.25 -30.25) rotate(64)"/>
      <rect class="cls-3" x="265.59" y="-8.66" width="18.89" height="76.2" rx="6.68" ry="6.68" transform="translate(180.93 -230.67) rotate(64)"/>
      <path class="cls-3" d="m282.77,29.76h0c-4.24-.77-7.49,2.13-7.26,6.49l10.91,203.51c.23,4.36,3.86,8.51,8.1,9.29h0c4.24.77,7.49-2.13,7.26-6.49l-10.91-203.51c-.23-4.36-3.86-8.51-8.1-9.29Z"/>
      <rect class="cls-4" x="199.59" y="61.9" width="24.12" height="172.92" rx="8.54" ry="8.54" transform="translate(252.21 -106.91) rotate(64)"/>
      <circle class="cls-1" cx="398.65" cy="176.37" r="57.64"/>
      <circle class="cls-1" cx="154.74" cy="295.33" r="57.64"/>
    </g>
  </g>
</svg>