<?xml version="1.0" encoding="UTF-8"?>
<svg id="Layer_2" data-name="Layer 2" xmlns="http://www.w3.org/2000/svg" viewBox="0 0 409.86 315.55">
  <defs>
    <style>
      .cls-1 {
        fill: #fbb03b;
      }
    </style>
  </defs>
  <g id="Layer_1-2" data-name="Layer 1">
    <g>
      <path d="m405.19,58.77c12.98,6.59-3.96,33.01-16.26,62.69-12.3,29.68-32.8,48.41-45.78,41.81-12.98-6.59-13.53-36-1.23-65.68,12.3-29.68,50.29-45.42,63.27-38.83Z"/>
      <path d="m315.44,16.56c15.69,7.21-4.35,35.1-17.24,70.02-12.89,34.91-36.06,57.38-51.75,50.17-15.69-7.21-17.95-41.35-5.06-76.27,12.89-34.91,58.36-51.13,74.05-43.92Z"/>
      <path d="m205.28,1.89c18.24,8.38-1.43,41.84-16.42,82.44-14.99,40.6-41.93,66.72-60.17,58.34-18.24-8.38-20.88-48.09-5.89-88.69C137.8,13.38,187.04-6.49,205.28,1.89Z"/>
      <path d="m53.15,153.59c35.11-8.62,23.58,34.29.2,69.81-13.83,21.01-21.1,44.63-40.07,29.43-10.78-8.64-18.67-30.16-8.74-52.9,9.93-22.74,35.19-43.05,48.6-46.34Z"/>
      <path d="m65.02,281.24c0-51.87,71.83-124.19,160.44-124.19s160.44,72.32,160.44,124.19-71.83,29.53-160.44,29.53-160.44,22.34-160.44-29.53Z"/>
      <path class="cls-1" d="m147.48,264.16c0-25.21,34.91-60.36,77.98-60.36s77.98,35.15,77.98,60.36-34.91,14.35-77.98,14.35-77.98,10.86-77.98-14.35Z"/>
    </g>
  </g>
</svg>