<?xml version="1.0" encoding="UTF-8"?>
<svg id="Layer_2" data-name="Layer 2" xmlns="http://www.w3.org/2000/svg" viewBox="0 0 374.81 365.21">
  <defs>
    <style>
      .cls-1 {
        fill: #fbb03b;
      }
    </style>
  </defs>
  <g id="Layer_1-2" data-name="Layer 1">
    <g>
      <g>
        <path class="cls-1" d="m16.32,331.38c4.26-15.67,31.89-31.62,58.66-24.35,26.77,7.27,42.53,35.01,38.28,50.68-4.26,15.67-24.12,3.03-50.89-4.25-26.77-7.27-50.3-6.42-46.05-22.09Z"/>
        <path d="m136.27,280.67c3.38,3.06-3.91,9.65-10.06,17.61-6.15,7.96-13.88,11.93-17.26,8.88s-1.13-11.99,5.02-19.94c6.15-7.96,18.92-9.59,22.3-6.54Z"/>
        <path d="m112.62,260.56c4.15,3.46-4.19,10.25-10.95,19.74-6.76,9.49-15.6,14.37-19.75,10.91s-2.03-13.97,4.73-23.46c6.76-9.49,21.83-10.66,25.98-7.19Z"/>
        <path d="m80.54,247.08c4.82,4.03-3.86,12.52-11.72,23.56s-18.14,16.71-22.97,12.69c-4.82-4.03-2.36-16.24,5.5-27.28,7.86-11.04,24.37-13,29.19-8.97Z"/>
        <path d="m22.13,280.43c11.31.28,4.31,12.3-5.67,21.11-5.9,5.21-10.04,11.75-14.52,5.6-2.55-3.49-3.17-10.64,1.7-16.7s14.16-10.12,18.49-10.01Z"/>
        <path d="m15.24,319.96c4.26-15.67,31.89-31.62,58.66-24.35,26.77,7.27,42.53,35.01,38.28,50.68-4.26,15.67-24.12,3.03-50.89-4.25-26.77-7.27-50.3-6.42-46.05-22.09Z"/>
        <path class="cls-1" d="m30.86,318.87c2.7-9.94,21.77-19.63,40.66-14.5,18.89,5.13,30.43,23.14,27.73,33.08-2.7,9.94-16.85,1.5-35.73-3.63s-35.36-5.01-32.66-14.95Z"/>
      </g>
      <g>
        <path class="cls-1" d="m299.19,296.27c3.23,3.21-4.36,9.45-10.89,17.1-6.53,7.65-14.44,11.25-17.67,8.04s-.56-12.03,5.97-19.68c6.53-7.65,19.36-8.68,22.59-5.46Z"/>
        <path class="cls-1" d="m276.53,275.05c3.98,3.66-4.68,10.04-11.89,19.19-7.21,9.16-16.27,13.61-20.25,9.95s-1.36-14.05,5.85-23.2c7.21-9.16,22.31-9.6,26.29-5.94Z"/>
        <path class="cls-1" d="m245.13,260.05c4.62,4.26-4.46,12.32-12.84,22.97-8.38,10.65-18.92,15.83-23.55,11.57-4.62-4.26-1.58-16.33,6.8-26.98,8.38-10.65,24.96-11.82,29.59-7.56Z"/>
        <path class="cls-1" d="m185.2,290.56c11.29.82,3.72,12.49-6.67,20.81-6.14,4.93-10.59,11.26-14.77,4.9-2.38-3.61-2.65-10.78,2.5-16.6,5.15-5.81,14.63-9.43,18.94-9.12Z"/>
        <path d="m298.64,291.04c3.23,3.21-4.36,9.45-10.89,17.1-6.53,7.65-14.44,11.25-17.67,8.04-3.23-3.21-.56-12.03,5.97-19.68,6.53-7.65,19.36-8.68,22.59-5.46Z"/>
        <path d="m275.98,269.82c3.98,3.66-4.68,10.04-11.89,19.19-7.21,9.16-16.27,13.61-20.25,9.95-3.98-3.66-1.36-14.05,5.85-23.2,7.21-9.16,22.31-9.6,26.29-5.94Z"/>
        <path d="m244.59,254.83c4.62,4.26-4.46,12.32-12.84,22.97s-18.92,15.83-23.55,11.57c-4.62-4.26-1.58-16.33,6.8-26.98,8.38-10.65,24.96-11.82,29.59-7.56Z"/>
        <path d="m184.65,285.34c11.29.82,3.72,12.49-6.67,20.81-6.14,4.93-10.59,11.26-14.77,4.9-2.38-3.61-2.65-10.78,2.5-16.6,5.15-5.81,14.63-9.43,18.94-9.12Z"/>
        <path d="m175.87,324.5c5-15.45,33.37-30.06,59.76-21.52,26.39,8.54,40.81,37.01,35.81,52.46-5,15.45-24.24,1.87-50.63-6.68-26.39-8.54-49.94-8.82-44.94-24.26Z"/>
        <path class="cls-1" d="m192.68,324.24c3.07-9.49,21.97-17.98,40.01-12.15,18.03,5.84,28.37,23.8,25.3,33.29-3.07,9.49-16.37.67-34.4-5.17-18.03-5.84-33.98-6.48-30.9-15.97Z"/>
      </g>
      <g>
        <path class="cls-1" d="m177.33,173.67c3.25,3.2-4.32,9.47-10.8,17.16-6.49,7.69-14.38,11.32-17.63,8.13-3.25-3.2-.62-12.02,5.87-19.71,6.49-7.69,19.31-8.77,22.56-5.57Z"/>
        <path class="cls-1" d="m154.56,152.56c4,3.64-4.63,10.06-11.79,19.25s-16.21,13.69-20.2,10.05c-4-3.64-1.43-14.04,5.73-23.23,7.16-9.19,22.27-9.71,26.26-6.07Z"/>
        <path class="cls-1" d="m123.09,137.72c4.65,4.23-4.4,12.34-12.73,23.03-8.33,10.69-18.84,15.92-23.49,11.69s-1.66-16.33,6.67-27.01c8.33-10.69,24.9-11.94,29.55-7.7Z"/>
        <path class="cls-1" d="m63.31,168.52c11.29.76,3.78,12.47-6.57,20.85-6.12,4.96-10.53,11.31-14.75,4.97-2.39-3.6-2.71-10.77,2.42-16.61,5.12-5.84,14.58-9.5,18.9-9.21Z"/>
        <path d="m176.67,168.56c3.25,3.2-4.32,9.47-10.8,17.16-6.49,7.69-14.38,11.32-17.63,8.13-3.25-3.2-.62-12.02,5.87-19.71,6.49-7.69,19.31-8.77,22.56-5.57Z"/>
        <path d="m153.91,147.44c4,3.64-4.63,10.06-11.79,19.25-7.16,9.19-16.21,13.69-20.2,10.05-4-3.64-1.43-14.04,5.73-23.23,7.16-9.19,22.27-9.71,26.26-6.07Z"/>
        <path d="m122.44,132.6c4.65,4.23-4.4,12.34-12.73,23.03-8.33,10.69-18.84,15.92-23.49,11.69s-1.66-16.33,6.67-27.01c8.33-10.69,24.9-11.94,29.55-7.7Z"/>
        <path d="m62.65,163.41c11.29.76,3.78,12.47-6.57,20.85-6.12,4.96-10.53,11.31-14.75,4.97-2.39-3.6-2.71-10.77,2.42-16.61,5.12-5.84,14.58-9.5,18.9-9.21Z"/>
        <path d="m54.07,202.61c4.93-15.47,33.22-30.22,59.65-21.81,26.43,8.42,40.99,36.81,36.07,52.28s-24.23,1.99-50.66-6.43c-26.43-8.42-49.98-8.57-45.06-24.04Z"/>
        <path class="cls-1" d="m72.76,202.38c2.86-9,20.72-17.13,37.82-11.68,17.1,5.44,26.97,22.4,24.1,31.4-2.86,9-15.49.71-32.59-4.74-17.1-5.44-32.19-5.98-29.33-14.98Z"/>
      </g>
      <g>
        <path class="cls-1" d="m220.82,207.85c3.64-15.82,30.63-32.85,57.66-26.63,27.03,6.22,43.87,33.32,40.23,49.15-3.64,15.82-23.99,3.97-51.02-2.25-27.03-6.22-50.52-4.44-46.88-20.27Z"/>
        <path d="m339.29,151.5c3.5,2.92-3.52,9.79-9.36,17.99-5.84,8.19-13.4,12.47-16.9,9.54s-1.6-11.93,4.23-20.13c5.84-8.19,18.53-10.33,22.03-7.4Z"/>
        <path d="m314.87,132.32c4.28,3.3-3.79,10.4-10.17,20.15-6.38,9.75-15.03,14.97-19.31,11.67-4.28-3.3-2.58-13.88,3.81-23.62,6.38-9.75,21.39-11.5,25.67-8.2Z"/>
        <path d="m282.29,120.11c4.98,3.84-3.37,12.66-10.79,24-7.42,11.33-17.48,17.41-22.45,13.58s-2.99-16.14,4.43-27.47c7.42-11.33,23.84-13.94,28.82-10.1Z"/>
        <path d="m225.23,155.72c11.32-.17,4.79,12.12-4.84,21.31-5.69,5.44-9.57,12.14-14.29,6.17-2.68-3.39-3.58-10.51,1.05-16.75,4.63-6.24,13.76-10.66,18.08-10.73Z"/>
        <path d="m219.89,195.49c3.64-15.82,30.63-32.85,57.66-26.63,27.03,6.22,43.87,33.32,40.23,49.15-3.64,15.82-23.99,3.97-51.02-2.25-27.03-6.22-50.52-4.44-46.88-20.27Z"/>
        <path class="cls-1" d="m235.26,193.8c2.32-10.09,21.1-20.58,40.28-16.17,19.18,4.41,31.49,22.06,29.17,32.14-2.32,10.09-16.87,2.17-36.04-2.24-19.18-4.41-35.72-3.64-33.4-13.73Z"/>
      </g>
      <g>
        <path class="cls-1" d="m86.85,87.77c4.37-15.64,32.12-31.39,58.84-23.93,26.72,7.46,42.28,35.32,37.91,50.96-4.37,15.64-24.15,2.85-50.86-4.61-26.72-7.46-50.26-6.78-45.89-22.42Z"/>
        <path d="m208.81,36.79c3.36,3.08-3.97,9.62-10.18,17.53-6.21,7.91-13.97,11.83-17.33,8.75-3.36-3.08-1.05-11.99,5.16-19.91s18.99-9.46,22.35-6.38Z"/>
        <path d="m185.3,16.5c4.12,3.49-4.27,10.22-11.1,19.66-6.83,9.44-15.71,14.26-19.83,10.77-4.12-3.49-1.93-13.98,4.9-23.42,6.83-9.44,21.9-10.5,26.03-7Z"/>
        <path d="m153.33,2.8c4.79,4.06-3.95,12.49-11.89,23.47-7.94,10.98-18.26,16.58-23.06,12.52-4.79-4.06-2.24-16.26,5.7-27.24,7.94-10.98,24.46-12.82,29.26-8.76Z"/>
        <path d="m94.68,35.72c11.31.36,4.22,12.33-5.82,21.07-5.94,5.17-10.12,11.68-14.56,5.5-2.52-3.51-3.09-10.67,1.82-16.69s14.24-10.01,18.56-9.88Z"/>
        <path d="m87.5,75.21c4.37-15.64,32.12-31.39,58.84-23.93,26.72,7.46,42.28,35.32,37.91,50.96-4.37,15.64-24.15,2.85-50.86-4.61-26.72-7.46-50.26-6.78-45.89-22.42Z"/>
        <path class="cls-1" d="m102,74.2c2.86-10.23,22.6-20.08,42.03-14.65,19.43,5.43,31.21,24.09,28.35,34.32s-17.38,1.42-36.82-4.01-36.42-5.43-33.56-15.65Z"/>
      </g>
      <g>
        <path class="cls-1" d="m374.14,46.18c3.05,3.39-4.88,9.19-11.82,16.47-6.94,7.28-15.04,10.43-18.09,7.04s.11-12.04,7.05-19.32c6.94-7.28,19.81-7.59,22.86-4.2Z"/>
        <path class="cls-1" d="m352.7,23.73c3.77,3.87-5.23,9.76-12.94,18.5-7.7,8.74-17,12.69-20.77,8.81-3.77-3.87-.58-14.1,7.13-22.84,7.7-8.74,22.81-8.34,26.58-4.47Z"/>
        <path class="cls-1" d="m322.19,7.01c4.38,4.51-5.14,12.06-14.1,22.22-8.96,10.16-19.77,14.75-24.15,10.25s-.67-16.4,8.29-26.56c8.96-10.16,25.58-10.41,29.96-5.9Z"/>
        <path class="cls-1" d="m260.64,34.14c11.22,1.44,3.01,12.67-7.82,20.41-6.41,4.58-11.2,10.65-15.02,4.07-2.17-3.74-2.05-10.91,3.42-16.43,5.47-5.52,15.13-8.6,19.42-8.05Z"/>
        <path d="m372.81,41.97c3.05,3.39-4.88,9.19-11.82,16.47-6.94,7.28-15.04,10.43-18.09,7.04s.11-12.04,7.05-19.32c6.94-7.28,19.81-7.59,22.86-4.2Z"/>
        <path d="m351.36,19.51c3.77,3.87-5.23,9.76-12.94,18.5-7.7,8.74-17,12.69-20.77,8.81s-.58-14.1,7.13-22.84c7.7-8.74,22.81-8.34,26.58-4.47Z"/>
        <path d="m320.86,2.8c4.38,4.51-5.14,12.06-14.1,22.22-8.96,10.16-19.77,14.75-24.15,10.25s-.67-16.4,8.29-26.56c8.96-10.16,25.58-10.41,29.96-5.9Z"/>
        <path d="m259.31,29.93c11.22,1.44,3.01,12.67-7.82,20.41-6.41,4.58-11.2,10.65-15.02,4.07-2.17-3.74-2.05-10.91,3.42-16.43,5.47-5.52,15.13-8.6,19.42-8.05Z"/>
        <path d="m248.37,68.54c5.85-15.15,34.99-28.16,60.86-18.16,25.87,10,38.69,39.22,32.84,54.37s-24.31.52-50.18-9.48c-25.87-10-49.37-11.58-43.52-26.73Z"/>
        <path class="cls-1" d="m266.7,69.4c3.44-8.9,21.94-16,38.85-9.47,16.91,6.53,25.82,24.23,22.38,33.13-3.44,8.9-15.66-.23-32.57-6.77-16.91-6.53-32.1-8-28.66-16.89Z"/>
      </g>
    </g>
  </g>
</svg>